Coordinates
version=1
nRows=26
nColumns=24
inDegrees=yes

Units are S.I. units (second, meters, Newtons, ...)
If the header above contains a line with 'inDegrees', this indicates whether rotational values are in degrees (yes) or radians (no).

endheader
time	pelvis_tilt	pelvis_list	pelvis_rotation	pelvis_tx	pelvis_ty	pelvis_tz	hip_flexion_r	hip_adduction_r	hip_rotation_r	knee_angle_r	ankle_angle_r	subtalar_angle_r	mtp_angle_r	hip_flexion_l	hip_adduction_l	hip_rotation_l	knee_angle_l	ankle_angle_l	subtalar_angle_l	mtp_angle_l	lumbar_extension	lumbar_bending	lumbar_rotation
      1.38000000	      0.51322327	     -8.61891065	      3.63877230	      0.09124384	      0.77403904	      0.10080284	     22.32590712	     10.37805696	    -11.16452794	    -27.50554696	      5.50821286	      2.07905888	      0.00000000	     17.33165117	     -7.43783770	      4.76448044	    -70.03628949	    -15.52506125	    -11.26679324	      0.00000000	     -7.04325268	      8.67848617	     -1.48907795
      1.38500000	      0.54346658	     -8.61188320	      3.35509994	      0.09623417	      0.77493531	      0.10134123	     21.70638663	     10.54663351	    -10.91064974	    -27.25886832	      5.84498375	      2.29487491	      0.00000000	     18.24240850	     -7.20388624	      4.89207490	    -70.57614464	    -14.68796469	    -11.43798948	      0.00000000	     -7.17070897	      8.63030424	     -1.21501233
      1.39000000	      0.57583012	     -8.57759542	      3.03414384	      0.10122835	      0.77579949	      0.10188762	     21.09189325	     10.70173358	    -10.57416338	    -27.04400969	      6.21713771	      2.53395276	      0.00000000	     19.13209805	     -6.97518624	      4.95895726	    -71.06401773	    -13.67628383	    -11.34317194	      0.00000000	     -7.27897206	      8.55997349	     -0.86768239
      1.39500000	      0.63046206	     -8.48790029	      2.77821531	      0.10614137	      0.77679188	      0.10225897	     20.45325645	     10.72694340	    -10.47361049	    -26.78456188	      6.31991117	      2.63413132	      0.00000000	     19.99869116	     -6.67134857	      5.05107742	    -71.39379973	    -13.40591327	    -11.39266107	      0.00000000	     -7.45650469	      8.46032392	     -0.76179188
      1.40000000	      0.60875511	     -8.42138104	      2.44084363	      0.11117653	      0.77766890	      0.10270266	     19.80514840	     10.88341481	     -9.89442700	    -26.42598360	      6.81298555	      2.85708256	      0.00000000	     20.86017232	     -6.36058688	      5.16879396	    -71.68137446	    -12.10175463	    -11.18910465	      0.00000000	     -7.48443656	      8.38310781	     -0.36071259
      1.40500000	      0.63836585	     -8.31301536	      2.03560992	      0.11612109	      0.77859422	      0.10331244	     19.15947725	     10.98387201	     -9.45020100	    -26.15614569	      7.08293938	      2.99973003	      0.00000000	     21.66692961	     -6.12509499	      5.14124000	    -71.89399949	    -11.02018844	    -10.41108341	      0.00000000	     -7.62598215	      8.22151942	      0.07832980
      1.41000000	      0.63659182	     -8.20860395	      1.79733743	      0.12110500	      0.77950103	      0.10354128	     18.51457530	     11.00250295	     -9.15762648	    -25.79471696	      7.28841022	      3.10965604	      0.00000000	     22.50673665	     -5.77495584	      5.28581119	    -71.96869573	    -10.51218313	    -10.40531511	      0.00000000	     -7.68559399	      8.12950081	      0.21674286
      1.41500000	      0.67028358	     -8.07800367	      1.36509681	      0.12610020	      0.78039973	      0.10410988	     17.84190904	     11.08058876	     -8.62031561	    -25.50971184	      7.66602476	      3.19211641	      0.00000000	     23.24018413	     -5.55208251	      5.18603935	    -71.98760527	     -9.43545469	     -9.93701762	      0.00000000	     -7.81237138	      7.95185264	      0.55388454
      1.42000000	      0.67388073	     -7.96834213	      1.14128321	      0.13104108	      0.78124650	      0.10438222	     17.22401659	     11.06528576	     -8.45254393	    -25.19418311	      7.77898176	      3.28624088	      0.00000000	     24.05630872	     -5.26348537	      5.27094485	    -71.89865806	     -9.13400070	     -9.90046559	      0.00000000	     -7.86890521	      7.82433737	      0.66752737
      1.42500000	      0.64832106	     -7.82822341	      0.87910982	      0.13604672	      0.78208724	      0.10465015	     16.58412266	     11.04978955	     -8.10221560	    -24.80260203	      8.01314511	      3.40420995	      0.00000000	     24.83928849	     -4.94420795	      5.33206133	    -71.70792243	     -8.59463969	     -9.84053643	      0.00000000	     -7.89307475	      7.68486355	      0.82087805
      1.43000000	      0.63459936	     -7.67762929	      0.56150068	      0.14107984	      0.78289154	      0.10496077	     15.93335698	     11.03203270	     -7.67552352	    -24.44185960	      8.30308303	      3.51357320	      0.00000000	     25.56059540	     -4.67309245	      5.31206117	    -71.42154631	     -7.93931051	     -9.73988159	      0.00000000	     -7.91865750	      7.52273552	      0.99939505
      1.43500000	      0.77616456	     -7.44532521	     -0.17733116	      0.14612315	      0.78384610	      0.10568061	     15.15878949	     11.04988611	     -6.74817014	    -24.26536176	      8.77065370	      3.50825754	      0.00000000	     25.96955567	     -4.57424159	      4.80540578	    -71.04159862	     -6.59701970	     -8.96659283	      0.00000000	     -8.21299928	      7.28252890	      1.64685207
      1.44000000	      0.71274338	     -7.33543782	     -0.37253323	      0.15113403	      0.78452656	      0.10593755	     14.57521599	     11.01489923	     -6.57447921	    -23.87418018	      8.88449538	      3.60099473	      0.00000000	     26.74117839	     -4.34240786	      4.88678555	    -70.59337926	     -6.31801359	     -8.99179472	      0.00000000	     -8.16287602	      7.15771372	      1.74433365
      1.44500000	      0.72681618	     -7.15790412	     -0.78973960	      0.15613724	      0.78526929	      0.10625270	     13.90177959	     10.98965271	     -5.86077969	    -23.54867702	      9.23184793	      3.65696094	      0.00000000	     27.30396575	     -4.11588847	      4.75470665	    -70.02880952	     -5.55200312	     -9.05606655	      0.00000000	     -8.25546732	      6.99744839	      1.95268726
      1.45000000	      0.78917151	     -6.95983380	     -1.30578153	      0.16126551	      0.78607507	      0.10686010	     13.16881876	     10.95503482	     -5.21416675	    -23.22021786	      9.49030091	      3.59937632	      0.00000000	     27.75288145	     -4.02737402	      4.41039210	    -69.33192706	     -4.95158615	     -9.06211508	      0.00000000	     -8.37012111	      6.73049078	      2.36602617
      1.45500000	      0.77771401	     -6.92854824	     -1.52786508	      0.16595454	      0.78654900	      0.10703030	     12.73789375	     10.93333581	     -5.25164502	    -23.15829204	      9.54725326	      3.60443074	      0.00000000	     28.45448738	     -3.96616813	      4.41085529	    -68.71342290	     -4.84398636	     -9.07966343	      0.00000000	     -8.51297107	      6.76129757	      2.37723084
      1.46000000	      0.66825139	     -6.72127847	     -1.84451032	      0.17131760	      0.78713702	      0.10730791	     12.04678285	     10.83650930	     -4.66195715	    -22.54610637	      9.86449909	      3.74751420	      0.00000000	     29.02227042	     -3.75039945	      4.26756113	    -67.84229370	     -4.22461915	     -9.38870268	      0.00000000	     -8.29447411	      6.54498043	      2.50022733
      1.46500000	      0.66734857	     -6.55351755	     -2.24996986	      0.17639947	      0.78769709	      0.10764619	     11.41642724	     10.76316236	     -4.13158408	    -22.24533983	     10.15453284	      3.78528231	      0.00000000	     29.47789348	     -3.67414483	      3.97652167	    -66.92288814	     -3.71563015	     -9.68365948	      0.00000000	     -8.33440157	      6.37639737	      2.64770460
      1.47000000	      0.61771548	     -6.49620529	     -2.59551483	      0.18143599	      0.78813958	      0.10792947	     10.93779070	     10.73437974	     -3.99927872	    -22.09110205	     10.31135536	      3.78716891	      0.00000000	     29.95826290	     -3.67137709	      3.87743649	    -65.91138383	     -3.47861538	     -9.79143649	      0.00000000	     -8.31260803	      6.36826575	      2.71278101
      1.47500000	      0.82005130	     -6.09778953	     -3.40221729	      0.18657681	      0.78897125	      0.10864893	     10.00348141	     10.52675502	     -2.59862413	    -21.73219903	     10.75956296	      3.70128835	      0.00000000	     29.95894764	     -3.61972845	      3.01817954	    -64.67381132	     -2.81639255	    -10.50804370	      0.00000000	     -8.62886137	      5.87383573	      3.40077161
      1.48000000	      0.78527541	     -5.94796629	     -3.82850656	      0.19159998	      0.78937174	      0.10903848	      9.42361725	     10.44932631	     -2.04377754	    -21.41735638	     10.93318232	      3.63258972	      0.00000000	     30.32210736	     -3.62482306	      2.71639650	    -63.47621887	     -2.50981415	    -10.85151079	      0.00000000	     -8.64004881	      5.72466718	      3.65794075
      1.48500000	      0.74231623	     -5.81313534	     -4.20793356	      0.19665329	      0.78971743	      0.10932276	      8.86868521	     10.36278582	     -1.53893630	    -21.14395796	     11.14408598	      3.63043526	      0.00000000	     30.66525308	     -3.63666325	      2.43552641	    -62.20721996	     -2.15500777	    -11.13217697	      0.00000000	     -8.62331993	      5.62746816	      3.79233721
      1.49000000	      0.78905153	     -5.63857220	     -4.72647172	      0.20172372	      0.79014790	      0.10991001	      8.21585620	     10.26227423	     -0.88779213	    -20.86991879	     11.34109382	      3.46882735	      0.00000000	     30.81708095	     -3.73882979	      1.93957453	    -60.80119988	     -1.94226435	    -11.47167431	      0.00000000	     -8.72733585	      5.39590335	      4.22416657
      1.49500000	      0.69897648	     -5.53370488	     -5.06832901	      0.20675268	      0.79029867	      0.11015980	      7.72414232	     10.18659155	     -0.44238669	    -20.59810486	     11.57077894	      3.52016845	      0.00000000	     31.14214219	     -3.80237207	      1.67367725	    -59.40198817	     -1.54412970	    -11.66380479	      0.00000000	     -8.66113034	      5.33390126	      4.21789079
      1.50000000	      0.68475641	     -5.39087025	     -5.52149662	      0.21178862	      0.79053861	      0.11055707	      7.16457087	     10.07463626	      0.10550890	    -20.36252908	     11.83834593	      3.54114590	      0.00000000	     31.28851273	     -3.90307777	      1.26889682	    -57.86421881	     -1.20252205	    -11.83573420	      0.00000000	     -8.69710114	      5.19101253	      4.38413120
      1.50500000	      0.67522191	     -5.26710300	     -5.96524570	      0.21683893	      0.79072840	      0.11101362	      6.60580906	      9.97314839	      0.61411384	    -20.13368740	     12.08592599	      3.53560069	      0.00000000	     31.38819380	     -4.05640768	      0.82392180	    -56.25176601	     -0.91740922	    -11.96753770	      0.00000000	     -8.72695763	      5.04535489	      4.62789753
